<svg version="1.1" id="Layer_1" xmlns="http://www.w3.org/2000/svg" xmlns:xlink="http://www.w3.org/1999/xlink" x="0px" y="0px"
	 width="100%" viewBox="0 0 952 282" enable-background="new 0 0 952 282" xml:space="preserve">
<path fill="#111111" opacity="1.000000" stroke="none" 
	d="
M679.000000,283.000000 
	C452.666656,283.000000 226.833328,283.000000 1.000000,283.000000 
	C1.000000,189.000000 1.000000,95.000000 1.000000,1.000000 
	C318.333344,1.000000 635.666687,1.000000 953.000000,1.000000 
	C953.000000,95.000000 953.000000,189.000000 953.000000,283.000000 
	C861.833313,283.000000 770.666687,283.000000 679.000000,283.000000 
M568.685486,183.368011 
	C582.229248,177.115875 588.058289,165.571854 590.795593,151.395813 
	C593.957458,165.132614 599.262207,177.614746 613.202515,183.253845 
	C627.011597,188.839859 640.008362,187.305176 651.177246,175.220795 
	C651.177246,178.907593 651.177246,181.701462 651.177246,184.660156 
	C661.318970,184.660156 671.189148,184.660156 681.025757,184.660156 
	C681.025757,156.527557 681.025757,128.738007 681.025757,100.706650 
	C671.050781,100.706650 661.293274,100.706650 651.110596,100.706650 
	C651.110596,103.847168 651.110596,106.734467 651.110596,110.534210 
	C640.030945,98.145012 627.005676,96.893433 613.399536,102.295616 
	C599.465698,107.827904 593.872864,120.280853 590.812500,134.141266 
	C588.076111,119.821480 582.203247,107.854317 568.409668,102.290047 
	C554.829529,96.811882 541.831482,98.261932 530.721924,110.641045 
	C530.721924,106.650253 530.721924,103.748886 530.721924,100.774033 
	C520.567688,100.774033 510.832092,100.774033 501.133942,100.774033 
	C501.133942,142.323883 501.133942,183.545013 501.133942,224.688156 
	C511.227356,224.688156 520.963257,224.688156 531.163574,224.688156 
	C531.163574,208.198868 531.163574,192.020935 531.163574,175.329117 
	C541.849426,187.290482 554.363525,188.130249 568.685486,183.368011 
M368.825592,181.432724 
	C371.132935,179.502274 373.440308,177.571838 375.949982,175.472122 
	C375.949982,179.145111 376.148285,182.488815 375.910431,185.801193 
	C375.342987,193.703445 371.933716,198.049255 365.337372,199.689087 
	C358.899384,201.289551 352.752350,198.887360 348.909546,193.428986 
	C348.337250,192.616104 347.205170,191.694687 346.320007,191.682251 
	C337.223083,191.554520 328.123657,191.603912 318.744812,191.603912 
	C319.270538,200.356461 322.051270,207.545258 327.755981,213.213593 
	C342.192993,227.558563 360.047424,228.545563 378.328217,224.231857 
	C395.036346,220.289246 405.659698,205.957779 405.871857,188.245026 
	C406.213074,159.754654 405.987457,131.257446 405.987823,102.763138 
	C405.987823,102.134567 405.825684,101.506004 405.679749,100.445786 
	C397.102203,100.445786 388.636292,100.434753 380.170441,100.457443 
	C378.868439,100.460930 377.566864,100.619644 375.714478,100.743332 
	C375.714478,103.964005 375.714478,106.958992 375.714478,110.546577 
	C360.751740,93.743561 334.148621,96.314949 322.855957,115.665604 
	C312.538879,133.344620 312.686798,151.962418 322.684692,169.735626 
	C331.786011,185.914978 352.266327,190.914658 368.825592,181.432724 
M257.469330,99.392113 
	C240.520416,99.794792 229.209671,108.295860 223.743011,124.032997 
	C218.952042,137.824966 219.326477,151.858871 225.162628,165.347946 
	C235.161331,188.457962 265.360748,193.240997 281.027100,175.090668 
	C281.027100,178.670578 281.027100,181.706848 281.027100,184.730698 
	C291.264038,184.730698 300.996826,184.730698 310.716431,184.730698 
	C310.716431,156.578598 310.716431,128.699265 310.716431,100.772141 
	C300.697998,100.772141 290.968170,100.772141 280.857483,100.772141 
	C280.857483,103.995102 280.857483,106.893494 280.857483,110.740822 
	C274.634277,103.006897 267.155090,99.782280 257.469330,99.392113 
M84.916489,168.438782 
	C86.348061,170.265991 87.602463,172.272156 89.238976,173.892334 
	C103.486488,187.997726 132.987167,190.148453 149.623260,178.878754 
	C164.677704,168.680511 170.507584,140.848389 148.509232,128.919861 
	C141.109512,124.907402 132.938675,122.334679 125.205048,118.912323 
	C121.735992,117.377167 117.929802,115.929977 115.314957,113.378654 
	C113.612129,111.717209 112.562088,107.601906 113.456810,105.571983 
	C114.327385,103.596840 117.999268,101.930771 120.527512,101.800102 
	C126.200691,101.506897 128.321335,105.882919 129.347855,110.605453 
	C140.047821,110.605453 150.473557,110.605453 161.109268,110.605453 
	C161.355469,102.216202 158.760406,95.225510 153.199661,89.461266 
	C139.701691,75.469307 109.800041,73.456917 92.870125,84.868073 
	C77.612602,95.151993 76.247818,120.887344 88.950020,130.165009 
	C95.659035,135.065277 103.665207,138.250641 111.246155,141.874664 
	C116.325424,144.302780 121.782257,145.936066 126.887329,148.316986 
	C130.224396,149.873322 131.812256,152.969864 130.771652,156.640259 
	C129.749908,160.244156 126.878181,161.762497 123.207748,162.036331 
	C116.038788,162.571136 113.153656,158.149246 111.875549,152.202667 
	C101.150871,152.202667 90.759232,152.202667 79.308517,152.202667 
	C81.188210,157.865219 82.842247,162.847992 84.916489,168.438782 
M410.875244,140.571777 
	C410.421295,150.054932 411.885406,159.118439 416.977509,167.317596 
	C429.867188,188.072159 463.592438,192.804031 481.901947,176.485703 
	C488.238098,170.838593 493.031799,164.338440 494.415039,155.142365 
	C484.187653,155.142365 474.403534,155.066055 464.623932,155.241608 
	C463.439117,155.262894 462.056000,156.438156 461.145416,157.428543 
	C457.164307,161.758453 452.699036,162.985077 447.743469,160.884293 
	C443.327789,159.012390 440.981354,154.829346 441.260071,149.022766 
	C450.390320,149.022766 459.536499,149.022766 468.682678,149.022766 
	C477.756653,149.022766 486.830627,149.022766 495.807861,149.022766 
	C498.988525,116.925529 480.085358,100.013725 454.173767,99.378296 
	C429.521149,98.773758 411.514343,115.442497 410.875244,140.571777 
M737.140869,129.767593 
	C745.348145,129.767593 753.555481,129.767593 761.980896,129.767593 
	C759.909912,115.522980 753.122009,106.017349 740.108521,101.854591 
	C735.598328,100.411873 730.698242,99.775726 725.944641,99.593422 
	C716.330383,99.224709 707.220642,101.002968 699.095825,106.827545 
	C688.050232,114.745995 684.856140,135.496338 698.029785,144.282104 
	C702.718933,147.409424 708.482849,149.061264 713.923828,150.886719 
	C719.240784,152.670563 724.848145,153.590225 730.161133,155.383591 
	C731.719421,155.909576 733.683899,158.121490 733.684143,159.561050 
	C733.684387,160.998352 731.732178,163.065811 730.154236,163.756485 
	C725.244812,165.905365 719.083313,163.373825 716.414673,158.696594 
	C715.843323,157.695267 714.895447,156.166412 714.096252,156.150864 
	C704.870056,155.971130 695.639038,156.036163 686.320129,156.036163 
	C687.814209,165.717407 690.180359,170.611298 695.508118,175.512192 
	C709.284485,188.184875 736.454102,189.991394 751.827576,179.256821 
	C764.733093,170.245529 766.056274,151.786087 753.652527,142.185364 
	C748.510925,138.205688 741.546692,136.463303 735.253662,134.128555 
	C730.782471,132.469711 725.922363,131.840057 721.492981,130.097412 
	C719.782593,129.424500 718.782288,126.946709 717.458435,125.291222 
	C719.199951,124.004959 720.813660,121.887260 722.708130,121.596085 
	C727.449341,120.867348 731.507385,122.454796 733.859009,127.150993 
	C734.368774,128.169006 735.457214,128.897232 737.140869,129.767593 
M767.917358,125.631310 
	C768.137756,128.267624 767.969666,131.008636 768.647034,133.521790 
	C771.326294,143.462601 779.335449,147.343002 788.223755,149.914413 
	C794.731201,151.797058 801.415771,153.100250 807.842651,155.207230 
	C809.565491,155.772034 810.633545,158.334061 812.002197,159.979263 
	C810.192505,161.375122 808.547668,163.620056 806.542603,164.009415 
	C800.248779,165.231628 796.955200,162.995010 793.432739,156.205765 
	C783.959412,156.205765 774.495178,156.205765 764.845215,156.205765 
	C764.937317,165.644821 769.543762,172.491287 776.536926,177.819992 
	C790.278259,188.290771 814.749390,189.074997 829.355591,179.761276 
	C844.499084,170.104950 844.011841,147.872772 828.229248,139.395981 
	C823.638428,136.930237 818.377747,135.662430 813.353821,134.067001 
	C808.793335,132.618774 804.029053,131.753174 799.580994,130.042099 
	C797.986572,129.428757 795.762268,126.653244 796.107300,125.646248 
	C796.694397,123.932579 798.895447,122.127907 800.759888,121.623154 
	C805.341003,120.382904 809.633362,122.848785 812.022583,126.949142 
	C812.708313,128.126053 814.166687,129.610046 815.308228,129.642563 
	C823.437134,129.874207 831.575684,129.766068 840.032166,129.766068 
	C839.124084,119.912376 835.263123,112.136444 827.617798,106.523933 
	C815.489624,97.620506 792.729980,96.972084 779.853821,105.159439 
	C772.747009,109.678383 768.231934,115.955551 767.917358,125.631310 
M219.197571,110.531807 
	C219.197571,107.273170 219.197571,104.014526 219.197571,100.341690 
	C213.781052,100.341690 209.038300,100.341690 203.793488,100.341690 
	C203.793488,93.344490 203.793488,86.778572 203.793488,80.447510 
	C193.532242,80.447510 183.802582,80.447510 173.751587,80.447510 
	C173.751587,87.264221 173.751587,93.717331 173.751587,100.249428 
	C170.180817,100.410500 166.940781,100.556648 163.762726,100.700005 
	C163.762726,109.440506 163.762726,117.530411 163.762726,125.936172 
	C167.234390,125.936172 170.355118,125.936172 174.030792,125.936172 
	C174.030792,136.702484 173.861420,147.153580 174.072495,157.596985 
	C174.353821,171.516418 182.333405,181.499222 195.878494,183.864044 
	C203.460388,185.187759 211.315155,184.948563 219.079407,185.415543 
	C219.079407,176.179749 219.079407,167.801239 219.079407,159.105057 
	C215.841690,159.105057 213.019638,159.038025 210.202026,159.121262 
	C206.285706,159.236923 204.162064,157.219025 204.098053,153.503311 
	C203.941193,144.397797 204.046799,135.287781 204.046799,125.786873 
	C209.248840,125.786873 214.005188,125.786873 219.197586,125.786873 
	C219.197586,120.770317 219.197586,116.145912 219.197571,110.531807 
M868.715088,156.630997 
	C856.443176,154.883575 846.434998,164.371552 848.405273,175.885223 
	C849.859070,184.380890 857.057861,190.630997 865.337830,190.586334 
	C874.102234,190.539062 881.083008,184.334518 882.328186,175.485077 
	C883.527710,166.960159 878.500183,159.647552 868.715088,156.630997 
z"/>
<path fill="#FDFDFD" opacity="1.000000" stroke="none" 
	d="
M568.347656,183.562347 
	C554.363525,188.130249 541.849426,187.290482 531.163574,175.329117 
	C531.163574,192.020935 531.163574,208.198868 531.163574,224.688156 
	C520.963257,224.688156 511.227356,224.688156 501.133942,224.688156 
	C501.133942,183.545013 501.133942,142.323883 501.133942,100.774033 
	C510.832092,100.774033 520.567688,100.774033 530.721924,100.774033 
	C530.721924,103.748886 530.721924,106.650253 530.721924,110.641045 
	C541.831482,98.261932 554.829529,96.811882 568.409668,102.290047 
	C582.203247,107.854317 588.076111,119.821480 590.812500,134.141266 
	C593.872864,120.280853 599.465698,107.827904 613.399536,102.295616 
	C627.005676,96.893433 640.030945,98.145012 651.110596,110.534210 
	C651.110596,106.734467 651.110596,103.847168 651.110596,100.706650 
	C661.293274,100.706650 671.050781,100.706650 681.025757,100.706650 
	C681.025757,128.738007 681.025757,156.527557 681.025757,184.660156 
	C671.189148,184.660156 661.318970,184.660156 651.177246,184.660156 
	C651.177246,181.701462 651.177246,178.907593 651.177246,175.220795 
	C640.008362,187.305176 627.011597,188.839859 613.202515,183.253845 
	C599.262207,177.614746 593.957458,165.132614 590.795593,151.395813 
	C588.058289,165.571854 582.229248,177.115875 568.347656,183.562347 
M650.107300,149.237823 
	C650.266602,148.766876 650.469666,148.305832 650.578796,147.823532 
	C653.093323,136.708069 647.184082,126.719803 637.672363,125.992569 
	C630.190735,125.420563 623.749878,130.325302 622.136108,137.823471 
	C620.145752,147.071411 624.151184,156.212845 631.347412,158.845917 
	C638.913330,161.614288 645.708252,158.397293 650.107300,149.237823 
M530.953430,143.428787 
	C531.343384,151.594101 535.179626,157.241699 541.564514,159.050125 
	C549.266968,161.231735 556.421448,157.333649 559.193848,149.444748 
	C562.478027,140.099762 558.826233,130.165604 550.940674,126.993019 
	C540.817627,122.920250 531.363403,130.280518 530.953430,143.428787 
z"/>
<path fill="#FDFDFD" opacity="1.000000" stroke="none" 
	d="
M368.530212,181.658813 
	C352.266327,190.914658 331.786011,185.914978 322.684692,169.735626 
	C312.686798,151.962418 312.538879,133.344620 322.855957,115.665604 
	C334.148621,96.314949 360.751740,93.743561 375.714478,110.546577 
	C375.714478,106.958992 375.714478,103.964005 375.714478,100.743332 
	C377.566864,100.619644 378.868439,100.460930 380.170441,100.457443 
	C388.636292,100.434753 397.102203,100.445786 405.679749,100.445786 
	C405.825684,101.506004 405.987823,102.134567 405.987823,102.763138 
	C405.987457,131.257446 406.213074,159.754654 405.871857,188.245026 
	C405.659698,205.957779 395.036346,220.289246 378.328217,224.231857 
	C360.047424,228.545563 342.192993,227.558563 327.755981,213.213593 
	C322.051270,207.545258 319.270538,200.356461 318.744812,191.603912 
	C328.123657,191.603912 337.223083,191.554520 346.320007,191.682251 
	C347.205170,191.694687 348.337250,192.616104 348.909546,193.428986 
	C352.752350,198.887360 358.899384,201.289551 365.337372,199.689087 
	C371.933716,198.049255 375.342987,193.703445 375.910431,185.801193 
	C376.148285,182.488815 375.949982,179.145111 375.949982,175.472122 
	C373.440308,177.571838 371.132935,179.502274 368.530212,181.658813 
M375.999878,143.381516 
	C375.980927,142.549957 376.039062,141.708267 375.931213,140.888412 
	C374.688080,131.438278 368.703125,125.686317 360.453033,125.980972 
	C352.644684,126.259850 347.323730,132.128540 346.573364,141.289368 
	C345.792206,150.825500 350.623230,157.968933 358.987518,159.472275 
	C360.417419,159.729279 361.976196,159.714066 363.406311,159.450104 
	C370.653534,158.112442 374.220978,153.726822 375.999878,143.381516 
z"/>
<path fill="#FDFDFD" opacity="1.000000" stroke="none" 
	d="
M257.892151,99.441139 
	C267.155090,99.782280 274.634277,103.006897 280.857483,110.740822 
	C280.857483,106.893494 280.857483,103.995102 280.857483,100.772141 
	C290.968170,100.772141 300.697998,100.772141 310.716431,100.772141 
	C310.716431,128.699265 310.716431,156.578598 310.716431,184.730698 
	C300.996826,184.730698 291.264038,184.730698 281.027100,184.730698 
	C281.027100,181.706848 281.027100,178.670578 281.027100,175.090668 
	C265.360748,193.240997 235.161331,188.457962 225.162628,165.347946 
	C219.326477,151.858871 218.952042,137.824966 223.743011,124.032997 
	C229.209671,108.295860 240.520416,99.794792 257.892151,99.441139 
M252.703674,135.491119 
	C252.279251,137.929810 251.523880,140.364014 251.490875,142.807983 
	C251.380554,150.974960 255.575821,157.223007 262.088043,159.059814 
	C273.637543,162.317429 283.487427,151.453232 280.520996,138.728714 
	C278.862091,131.612961 274.265137,126.863159 268.217255,126.015907 
	C261.799072,125.116776 256.693298,128.040192 252.703674,135.491119 
z"/>
<path fill="#E95142" opacity="1.000000" stroke="none" 
	d="
M84.706390,168.134781 
	C82.842247,162.847992 81.188210,157.865219 79.308517,152.202667 
	C90.759232,152.202667 101.150871,152.202667 111.875549,152.202667 
	C113.153656,158.149246 116.038788,162.571136 123.207748,162.036331 
	C126.878181,161.762497 129.749908,160.244156 130.771652,156.640259 
	C131.812256,152.969864 130.224396,149.873322 126.887329,148.316986 
	C121.782257,145.936066 116.325424,144.302780 111.246155,141.874664 
	C103.665207,138.250641 95.659035,135.065277 88.950020,130.165009 
	C76.247818,120.887344 77.612602,95.151993 92.870125,84.868073 
	C109.800041,73.456917 139.701691,75.469307 153.199661,89.461266 
	C158.760406,95.225510 161.355469,102.216202 161.109268,110.605453 
	C150.473557,110.605453 140.047821,110.605453 129.347855,110.605453 
	C128.321335,105.882919 126.200691,101.506897 120.527512,101.800102 
	C117.999268,101.930771 114.327385,103.596840 113.456810,105.571983 
	C112.562088,107.601906 113.612129,111.717209 115.314957,113.378654 
	C117.929802,115.929977 121.735992,117.377167 125.205048,118.912323 
	C132.938675,122.334679 141.109512,124.907402 148.509232,128.919861 
	C170.507584,140.848389 164.677704,168.680511 149.623260,178.878754 
	C132.987167,190.148453 103.486488,187.997726 89.238976,173.892334 
	C87.602463,172.272156 86.348061,170.265991 84.706390,168.134781 
z"/>
<path fill="#FDFDFD" opacity="1.000000" stroke="none" 
	d="
M410.905396,140.091446 
	C411.514343,115.442497 429.521149,98.773758 454.173767,99.378296 
	C480.085358,100.013725 498.988525,116.925529 495.807861,149.022766 
	C486.830627,149.022766 477.756653,149.022766 468.682678,149.022766 
	C459.536499,149.022766 450.390320,149.022766 441.260071,149.022766 
	C440.981354,154.829346 443.327789,159.012390 447.743469,160.884293 
	C452.699036,162.985077 457.164307,161.758453 461.145416,157.428543 
	C462.056000,156.438156 463.439117,155.262894 464.623932,155.241608 
	C474.403534,155.066055 484.187653,155.142365 494.415039,155.142365 
	C493.031799,164.338440 488.238098,170.838593 481.901947,176.485703 
	C463.592438,192.804031 429.867188,188.072159 416.977509,167.317596 
	C411.885406,159.118439 410.421295,150.054932 410.905396,140.091446 
M463.633148,128.211166 
	C459.489990,123.539345 454.150726,122.730141 448.648590,124.507706 
	C444.464050,125.859619 441.731140,129.107437 441.311859,133.835175 
	C449.411652,133.835175 457.192474,133.835175 465.541962,133.835175 
	C464.962402,131.970047 464.489502,130.448181 463.633148,128.211166 
z"/>
<path fill="#FCFCFC" opacity="1.000000" stroke="none" 
	d="
M736.710022,129.763275 
	C735.457214,128.897232 734.368774,128.169006 733.859009,127.150993 
	C731.507385,122.454796 727.449341,120.867348 722.708130,121.596085 
	C720.813660,121.887260 719.199951,124.004959 717.458435,125.291222 
	C718.782288,126.946709 719.782593,129.424500 721.492981,130.097412 
	C725.922363,131.840057 730.782471,132.469711 735.253662,134.128555 
	C741.546692,136.463303 748.510925,138.205688 753.652527,142.185364 
	C766.056274,151.786087 764.733093,170.245529 751.827576,179.256821 
	C736.454102,189.991394 709.284485,188.184875 695.508118,175.512192 
	C690.180359,170.611298 687.814209,165.717407 686.320129,156.036163 
	C695.639038,156.036163 704.870056,155.971130 714.096252,156.150864 
	C714.895447,156.166412 715.843323,157.695267 716.414673,158.696594 
	C719.083313,163.373825 725.244812,165.905365 730.154236,163.756485 
	C731.732178,163.065811 733.684387,160.998352 733.684143,159.561050 
	C733.683899,158.121490 731.719421,155.909576 730.161133,155.383591 
	C724.848145,153.590225 719.240784,152.670563 713.923828,150.886719 
	C708.482849,149.061264 702.718933,147.409424 698.029785,144.282104 
	C684.856140,135.496338 688.050232,114.745995 699.095825,106.827545 
	C707.220642,101.002968 716.330383,99.224709 725.944641,99.593422 
	C730.698242,99.775726 735.598328,100.411873 740.108521,101.854591 
	C753.122009,106.017349 759.909912,115.522980 761.980896,129.767593 
	C753.555481,129.767593 745.348145,129.767593 736.710022,129.763275 
z"/>
<path fill="#FDFDFD" opacity="1.000000" stroke="none" 
	d="
M767.946899,125.178040 
	C768.231934,115.955551 772.747009,109.678383 779.853821,105.159439 
	C792.729980,96.972084 815.489624,97.620506 827.617798,106.523933 
	C835.263123,112.136444 839.124084,119.912376 840.032166,129.766068 
	C831.575684,129.766068 823.437134,129.874207 815.308228,129.642563 
	C814.166687,129.610046 812.708313,128.126053 812.022583,126.949142 
	C809.633362,122.848785 805.341003,120.382904 800.759888,121.623154 
	C798.895447,122.127907 796.694397,123.932579 796.107300,125.646248 
	C795.762268,126.653244 797.986572,129.428757 799.580994,130.042099 
	C804.029053,131.753174 808.793335,132.618774 813.353821,134.067001 
	C818.377747,135.662430 823.638428,136.930237 828.229248,139.395981 
	C844.011841,147.872772 844.499084,170.104950 829.355591,179.761276 
	C814.749390,189.074997 790.278259,188.290771 776.536926,177.819992 
	C769.543762,172.491287 764.937317,165.644821 764.845215,156.205765 
	C774.495178,156.205765 783.959412,156.205765 793.432739,156.205765 
	C796.955200,162.995010 800.248779,165.231628 806.542603,164.009415 
	C808.547668,163.620056 810.192505,161.375122 812.002197,159.979248 
	C810.633545,158.334061 809.565491,155.772034 807.842651,155.207230 
	C801.415771,153.100250 794.731201,151.797058 788.223755,149.914413 
	C779.335449,147.343002 771.326294,143.462601 768.647034,133.521790 
	C767.969666,131.008636 768.137756,128.267624 767.946899,125.178040 
z"/>
<path fill="#FDFDFD" opacity="1.000000" stroke="none" 
	d="
M219.197571,111.026657 
	C219.197586,116.145912 219.197586,120.770317 219.197586,125.786873 
	C214.005188,125.786873 209.248840,125.786873 204.046799,125.786873 
	C204.046799,135.287781 203.941193,144.397797 204.098053,153.503311 
	C204.162064,157.219025 206.285706,159.236923 210.202026,159.121262 
	C213.019638,159.038025 215.841690,159.105057 219.079407,159.105057 
	C219.079407,167.801239 219.079407,176.179749 219.079407,185.415543 
	C211.315155,184.948563 203.460388,185.187759 195.878494,183.864044 
	C182.333405,181.499222 174.353821,171.516418 174.072495,157.596985 
	C173.861420,147.153580 174.030792,136.702484 174.030792,125.936172 
	C170.355118,125.936172 167.234390,125.936172 163.762726,125.936172 
	C163.762726,117.530411 163.762726,109.440506 163.762726,100.700005 
	C166.940781,100.556648 170.180817,100.410500 173.751587,100.249428 
	C173.751587,93.717331 173.751587,87.264221 173.751587,80.447510 
	C183.802582,80.447510 193.532242,80.447510 203.793488,80.447510 
	C203.793488,86.778572 203.793488,93.344490 203.793488,100.341690 
	C209.038300,100.341690 213.781052,100.341690 219.197571,100.341690 
	C219.197571,104.014526 219.197571,107.273170 219.197571,111.026657 
z"/>
<path fill="#E75141" opacity="1.000000" stroke="none" 
	d="
M869.106018,156.726349 
	C878.500183,159.647552 883.527710,166.960159 882.328186,175.485077 
	C881.083008,184.334518 874.102234,190.539062 865.337830,190.586334 
	C857.057861,190.630997 849.859070,184.380890 848.405273,175.885223 
	C846.434998,164.371552 856.443176,154.883575 869.106018,156.726349 
z"/>
<path fill="#131313" opacity="1.000000" stroke="none" 
	d="
M650.032715,149.636414 
	C645.708252,158.397293 638.913330,161.614288 631.347412,158.845917 
	C624.151184,156.212845 620.145752,147.071411 622.136108,137.823471 
	C623.749878,130.325302 630.190735,125.420563 637.672363,125.992569 
	C647.184082,126.719803 653.093323,136.708069 650.578796,147.823532 
	C650.469666,148.305832 650.266602,148.766876 650.032715,149.636414 
z"/>
<path fill="#131313" opacity="1.000000" stroke="none" 
	d="
M530.953247,142.991272 
	C531.363403,130.280518 540.817627,122.920250 550.940674,126.993019 
	C558.826233,130.165604 562.478027,140.099762 559.193848,149.444748 
	C556.421448,157.333649 549.266968,161.231735 541.564514,159.050125 
	C535.179626,157.241699 531.343384,151.594101 530.953247,142.991272 
z"/>
<path fill="#141414" opacity="1.000000" stroke="none" 
	d="
M375.983490,143.810989 
	C374.220978,153.726822 370.653534,158.112442 363.406311,159.450104 
	C361.976196,159.714066 360.417419,159.729279 358.987518,159.472275 
	C350.623230,157.968933 345.792206,150.825500 346.573364,141.289368 
	C347.323730,132.128540 352.644684,126.259850 360.453033,125.980972 
	C368.703125,125.686317 374.688080,131.438278 375.931213,140.888412 
	C376.039062,141.708267 375.980927,142.549957 375.983490,143.810989 
z"/>
<path fill="#141414" opacity="1.000000" stroke="none" 
	d="
M252.828949,135.123108 
	C256.693298,128.040192 261.799072,125.116776 268.217255,126.015907 
	C274.265137,126.863159 278.862091,131.612961 280.520996,138.728714 
	C283.487427,151.453232 273.637543,162.317429 262.088043,159.059814 
	C255.575821,157.223007 251.380554,150.974960 251.490875,142.807983 
	C251.523880,140.364014 252.279251,137.929810 252.828949,135.123108 
z"/>
<path fill="#141414" opacity="1.000000" stroke="none" 
	d="
M463.824890,128.568726 
	C464.489502,130.448181 464.962402,131.970047 465.541962,133.835175 
	C457.192474,133.835175 449.411652,133.835175 441.311859,133.835175 
	C441.731140,129.107437 444.464050,125.859619 448.648590,124.507706 
	C454.150726,122.730141 459.489990,123.539345 463.824890,128.568726 
z"/>
</svg>